<svg width="87" height="19" viewBox="0 0 87 19" fill="none" xmlns="http://www.w3.org/2000/svg">
<path d="M12.4922 15.8438L14.8594 15.6211C15.5547 15.6211 15.9023 15.8086 15.9023 16.1836C15.9023 16.5508 15.6758 16.8711 15.2227 17.1445C14.1133 17.8086 12.9258 18.2578 11.6602 18.4922C10.3945 18.7266 9.16016 18.8438 7.95703 18.8438C6.76172 18.8438 5.90625 18.8203 5.39062 18.7734C4.88281 18.7344 4.375 18.6484 3.86719 18.5156C3.36719 18.3828 2.95703 18.2031 2.63672 17.9766C1.94141 17.4766 1.59375 16.707 1.59375 15.668C1.59375 13.8633 2.68359 11.5938 4.86328 8.85938C6.51172 6.79688 7.91016 5.59375 9.05859 5.25C9.66016 5.07031 10.3594 4.98047 11.1562 4.98047C11.9609 4.98047 12.3633 5.28516 12.3633 5.89453C12.3633 6.09766 12.3047 6.33984 12.1875 6.62109C11.7422 7.53516 11.3516 8.61719 11.0156 9.86719C10.6797 11.1094 10.5117 12.2266 10.5117 13.2188C10.5117 14.9688 11.1719 15.8438 12.4922 15.8438ZM0.597656 6.19922C0.199219 6.19922 0 5.96875 0 5.50781C0 5 0.152344 4.30469 0.457031 3.42188C1.05078 1.74219 1.6875 0.808594 2.36719 0.621094C2.55469 0.550781 3.12109 0.515625 4.06641 0.515625L11.9883 0.703125C12.3789 0.703125 13.5156 0.585938 15.3984 0.351562C17.2891 0.117188 18.2812 0 18.375 0C19.3828 0 19.8867 0.34375 19.8867 1.03125C19.8867 1.33594 19.7773 1.82031 19.5586 2.48438C19.3477 3.14062 19.0664 3.76172 18.7148 4.34766C18.3633 4.93359 18.0391 5.22656 17.7422 5.22656C17.5625 5.22656 17.1562 5.08203 16.5234 4.79297C14.6094 3.91797 13.0664 3.48047 11.8945 3.48047C10.7227 3.48047 9.36719 3.59375 7.82812 3.82031C6.28906 4.04688 5.14453 4.31641 4.39453 4.62891C3.64453 4.93359 2.98828 5.21484 2.42578 5.47266C1.37891 5.95703 0.769531 6.19922 0.597656 6.19922Z" fill="#F9F9F9"/>
<path d="M27.2109 15.8672C28.6797 15.8672 29.9062 14.7422 30.8906 12.4922C31.3438 11.4609 31.5703 10.625 31.5703 9.98438C31.5703 9.34375 31.4609 8.90234 31.2422 8.66016C31.0312 8.41797 30.6094 8.29688 29.9766 8.29688C29.3516 8.29688 28.6719 8.58984 27.9375 9.17578C27.2109 9.75391 26.625 10.4844 26.1797 11.3672C25.7344 12.25 25.5117 13.0469 25.5117 13.7578C25.5117 14.4609 25.668 14.9883 25.9805 15.3398C26.293 15.6914 26.7031 15.8672 27.2109 15.8672ZM33.3047 5.94141L38.6719 6.1875C38.875 6.1875 39.0273 6.25 39.1289 6.375C39.2305 6.49219 39.2812 6.625 39.2812 6.77344C39.2812 7.34375 39.043 8.25391 38.5664 9.50391C38.0977 10.7461 37.625 11.9805 37.1484 13.207C36.6797 14.4258 36.4453 15.2344 36.4453 15.6328C36.4453 16.0234 36.5039 16.2734 36.6211 16.3828C36.7461 16.4922 36.9805 16.5469 37.3242 16.5469C37.668 16.5469 38.293 16.3828 39.1992 16.0547C40.1133 15.7188 40.7305 15.4648 41.0508 15.293C41.3789 15.1211 41.6289 15.0352 41.8008 15.0352C42.1055 15.0352 42.2578 15.1719 42.2578 15.4453C42.2578 16.0234 41.0859 16.7812 38.7422 17.7188C37.9531 18.0391 37 18.3047 35.8828 18.5156C34.7734 18.7344 33.6445 18.8438 32.4961 18.8438C30.582 18.8438 29.4297 18.2344 29.0391 17.0156C27.8203 18.2344 26.1797 18.8438 24.1172 18.8438C22.7031 18.8438 21.5078 18.5039 20.5312 17.8242C19.4688 17.082 18.9375 15.9141 18.9375 14.3203C18.9375 12.6406 19.4336 11.0938 20.4258 9.67969C21.5117 8.10938 22.9648 7.02734 24.7852 6.43359C25.793 6.10547 26.875 5.94141 28.0312 5.94141C29.8047 5.94141 31.1836 6.37891 32.168 7.25391C32.1758 7.20703 32.1797 7.13281 32.1797 7.03125L32.168 6.52734C32.168 6.13672 32.5469 5.94141 33.3047 5.94141Z" fill="#F9F9F9"/>
<path d="M48.5039 18.832C48.3086 18.8398 48.0195 18.8438 47.6367 18.8438C45.8398 18.8438 44.1445 18.6758 42.5508 18.3398C40.9648 18.0039 40.0273 17.6133 39.7383 17.168C39.6445 17.0273 39.5977 16.8516 39.5977 16.6406C39.5977 16.4297 39.8477 16.0938 40.3477 15.6328C40.8477 15.1641 41.1914 14.9297 41.3789 14.9297C41.5664 14.9297 41.7578 15 41.9531 15.1406C42.1562 15.2734 42.3789 15.4375 42.6211 15.6328C42.8633 15.8281 43.1328 16.0234 43.4297 16.2188C44.1406 16.6875 44.9961 16.9219 45.9961 16.9219C46.3945 16.9219 46.7148 16.8203 46.957 16.6172C47.207 16.4141 47.332 16.1602 47.332 15.8555C47.332 15.543 47.2266 15.2734 47.0156 15.0469C46.8125 14.8203 46.543 14.625 46.207 14.4609C45.8789 14.2891 45.5156 14.1211 45.1172 13.957C44.7188 13.7852 44.3164 13.6016 43.9102 13.4062C43.5117 13.2031 43.1445 12.9844 42.8086 12.75C42.0664 12.2266 41.6953 11.5781 41.6953 10.8047C41.6953 10.0234 41.9297 9.34766 42.3984 8.77734C42.875 8.20703 43.4727 7.75 44.1914 7.40625C44.9102 7.0625 45.7227 6.77344 46.6289 6.53906C48.2227 6.14062 49.7266 5.94141 51.1406 5.94141C52.5625 5.94141 53.8828 6.01562 55.1016 6.16406C56.3281 6.30469 57.1719 6.51562 57.6328 6.79688C57.7578 6.86719 57.8203 7.05469 57.8203 7.35938C57.8203 7.65625 57.7148 8.08594 57.5039 8.64844C57.293 9.20312 57.0234 9.71875 56.6953 10.1953C56.375 10.6641 56.0859 10.8984 55.8281 10.8984C55.7266 10.8984 55.6406 10.8555 55.5703 10.7695C54.8281 9.87891 54.1055 9.19531 53.4023 8.71875C52.707 8.23438 51.9492 7.99219 51.1289 7.99219C50.5039 7.99219 50.0547 8.12109 49.7812 8.37891C49.5156 8.62891 49.3828 8.89062 49.3828 9.16406C49.3828 9.4375 49.5312 9.69922 49.8281 9.94922C50.1328 10.1992 50.5078 10.4258 50.9531 10.6289C51.4062 10.832 51.8945 11.0703 52.418 11.3438C52.9492 11.6094 53.4375 11.8828 53.8828 12.1641C54.3359 12.4375 54.7109 12.7852 55.0078 13.207C55.3125 13.6211 55.4648 14.1445 55.4648 14.7773C55.4648 15.4102 55.2344 16.0273 54.7734 16.6289C56.7109 16.2383 58.2266 15.7578 59.3203 15.1875C59.5078 15.0859 59.668 15.0352 59.8008 15.0352C60.0977 15.0352 60.2461 15.1836 60.2461 15.4805C60.2461 15.7305 60.0938 15.9609 59.7891 16.1719C59.4844 16.375 58.9805 16.625 58.2773 16.9219C57.5742 17.2109 56.7383 17.5039 55.7695 17.8008C53.5117 18.4883 51.0898 18.832 48.5039 18.832Z" fill="#F9F9F9"/>
<path d="M72.7852 6.28125L77.3672 6.15234C77.5703 6.15234 77.7227 6.21484 77.8242 6.33984C77.9258 6.45703 77.9766 6.58984 77.9766 6.73828C77.9766 7.30078 77.7891 7.84766 77.4141 8.37891C77.0469 8.90234 76.5742 9.36328 75.9961 9.76172C75.418 10.1602 74.7422 10.5312 73.9688 10.875C72.5781 11.4922 71.0703 11.9688 69.4453 12.3047C70.5547 12.1406 71.5234 12.0586 72.3516 12.0586C74.3359 12.0586 75.3281 12.6797 75.3281 13.9219C75.3281 14.1172 75.2773 14.4102 75.1758 14.8008C75.0742 15.1836 75.0234 15.4922 75.0234 15.7266C75.0234 16.2266 75.2734 16.4766 75.7734 16.4766C76.1406 16.4766 76.668 16.3438 77.3555 16.0781C78.0508 15.8047 78.5859 15.5625 78.9609 15.3516C79.3359 15.1406 79.5859 15.0352 79.7109 15.0352C79.8438 15.0352 79.9609 15.0781 80.0625 15.1641C80.1641 15.2422 80.2148 15.3867 80.2148 15.5977C80.2148 15.8008 80.0469 16.0234 79.7109 16.2656C78.5703 17.0703 77.2031 17.7031 75.6094 18.1641C74.0156 18.6172 72.5859 18.8438 71.3203 18.8438C70.0625 18.8438 69.2109 18.7148 68.7656 18.457C68.3203 18.207 68.0977 17.7891 68.0977 17.2031C68.0977 16.9062 68.1797 16.4531 68.3438 15.8438C68.5078 15.2266 68.5898 14.7383 68.5898 14.3789C68.5898 13.3398 67.9688 12.7656 66.7266 12.6562C65.7891 15.2188 65.2891 17.0156 65.2266 18.0469C65.2109 18.3359 65.0039 18.4805 64.6055 18.4805L58.5703 18.6094C58.4844 18.6094 58.3867 18.5547 58.2773 18.4453C58.1758 18.3438 58.125 18.2148 58.125 18.0586C58.125 17.9023 58.375 17.1172 58.875 15.7031C59.3828 14.2891 59.9375 12.7539 60.5391 11.0977C61.1484 9.44141 61.7031 7.71875 62.2031 5.92969C62.7109 4.14062 62.9648 2.80859 62.9648 1.93359L62.9531 1.60547C62.9531 1.21484 63.332 1.01953 64.0898 1.01953L69.457 0.984375C69.6367 0.984375 69.7812 1.04297 69.8906 1.16016C70.0078 1.26953 70.0664 1.39062 70.0664 1.52344C70.0664 2.19531 69.7305 3.62109 69.0586 5.80078C68.3867 7.98047 67.7461 9.89453 67.1367 11.543C68.543 11.1758 69.6484 10.5977 70.4531 9.80859C71.2578 9.01953 71.6602 8.1875 71.6602 7.3125L71.6484 6.86719C71.6484 6.47656 72.0273 6.28125 72.7852 6.28125Z" fill="#F9F9F9"/>
<circle cx="84.4727" cy="15.875" r="2.5" fill="#0CCE84"/>
</svg>
